{"glyphs":{"0":{"ha":849,"x_min":0,"x_max":0,"o":"m 424 -11 b 792 350 621 -11 792 143 b 424 711 792 561 621 711 b 57 350 228 711 57 561 b 424 -11 57 143 228 -11 z m 424 76 b 160 350 275 76 160 192 b 424 624 160 513 275 624 b 690 350 572 624 690 513 b 424 76 690 192 572 76 z "},"1":{"ha":394,"x_min":0,"x_max":0,"o":"m 188 0 l 286 0 l 286 700 l 33 700 l 33 617 l 188 617 z "},"2":{"ha":654,"x_min":0,"x_max":0,"o":"m 40 0 l 588 0 l 588 85 l 300 85 b 222 81 274 85 222 81 b 294 129 222 81 269 106 l 400 225 b 569 497 500 317 569 401 b 332 711 569 625 479 711 b 71 506 204 711 104 633 l 160 481 b 333 622 190 572 249 622 b 469 493 413 622 469 579 b 322 269 469 415 415 354 l 40 13 z "},"3":{"ha":686,"x_min":0,"x_max":0,"o":"m 331 -143 b 631 143 504 -143 631 -26 b 367 413 631 306 513 410 b 408 450 367 413 390 429 l 608 690 l 608 700 l 103 700 l 103 617 l 383 617 b 450 622 414 617 450 622 b 407 576 450 622 426 600 l 200 326 l 210 313 b 322 338 238 326 272 338 b 528 144 449 338 528 269 b 331 -56 528 15 438 -56 b 117 78 229 -56 157 -8 l 31 38 b 331 -143 81 -72 188 -143 z "},"4":{"ha":725,"x_min":0,"x_max":0,"o":"m 574 111 l 574 714 l 560 714 l 29 76 l 29 29 l 476 29 l 476 -131 l 574 -131 l 574 29 l 678 29 l 678 111 z m 476 111 l 225 111 b 158 107 194 111 158 107 b 208 157 158 107 188 132 l 439 442 b 481 500 458 467 481 500 b 476 426 481 500 476 456 z "},"5":{"ha":674,"x_min":0,"x_max":0,"o":"m 321 -143 b 619 142 500 -143 619 -22 b 335 421 619 304 504 421 b 194 385 269 421 225 404 l 194 617 l 565 617 l 565 700 l 110 700 l 110 267 l 122 263 b 317 336 165 299 221 336 b 517 142 449 336 517 260 b 321 -56 517 25 439 -56 b 125 53 221 -56 161 -11 l 43 8 b 321 -143 86 -76 182 -143 z "},"6":{"ha":706,"x_min":0,"x_max":0,"o":"m 354 -11 b 647 269 522 -11 647 107 b 376 543 647 431 531 543 b 238 493 321 543 274 522 b 304 565 238 493 282 536 l 494 847 l 385 847 l 149 499 b 58 268 96 421 58 350 b 354 -11 58 103 188 -11 z m 353 75 b 157 269 232 75 157 158 b 353 464 157 375 233 464 b 549 269 475 464 549 385 b 353 75 549 158 468 75 z "},"7":{"ha":626,"x_min":0,"x_max":0,"o":"m 106 -131 l 206 -131 l 588 688 l 588 700 l 46 700 l 46 617 l 456 617 z "},"8":{"ha":724,"x_min":0,"x_max":0,"o":"m 361 -11 b 668 249 544 -11 668 100 b 481 479 668 367 590 447 b 601 650 550 507 601 565 b 361 858 601 765 503 858 b 122 650 222 858 122 765 b 243 479 122 565 172 507 b 56 249 133 447 56 367 b 361 -11 56 100 179 -11 z m 361 517 b 218 646 275 517 218 568 b 361 776 218 722 276 776 b 504 646 444 776 504 722 b 361 517 504 568 447 517 z m 361 76 b 157 254 238 76 157 147 b 361 436 157 361 238 436 b 565 254 483 436 565 361 b 361 76 565 149 485 76 z "},"9":{"ha":714,"x_min":0,"x_max":0,"o":"m 238 -131 l 347 -131 l 564 194 b 656 429 618 276 656 344 b 357 711 656 597 525 711 b 58 428 188 711 58 589 b 338 151 58 264 178 151 b 479 203 388 151 442 171 b 415 135 479 203 438 168 z m 356 229 b 157 428 235 229 157 311 b 357 624 157 542 239 624 b 556 428 476 624 556 539 b 356 229 556 321 478 229 z "},"\u0000":{"ha":694,"x_min":0,"x_max":0,"o":""}," ":{"ha":329,"x_min":0,"x_max":0,"o":""},"!":{"ha":339,"x_min":0,"x_max":0,"o":"m 132 264 l 207 264 l 224 944 l 115 944 z m 169 -10 b 243 64 208 -10 243 22 b 169 139 243 107 208 139 b 96 64 131 139 96 107 b 169 -10 96 22 131 -10 z "},"\"":{"ha":393,"x_min":0,"x_max":0,"o":"m 247 653 l 326 653 l 338 944 l 235 944 z m 67 653 l 147 653 l 158 944 l 56 944 z "},"#":{"ha":640,"x_min":0,"x_max":0,"o":"m 94 244 l 176 244 l 213 394 l 350 394 l 313 244 l 394 244 l 431 394 l 550 394 l 550 472 l 451 472 l 489 622 l 600 622 l 600 700 l 508 700 l 546 851 l 465 851 l 426 700 l 289 700 l 326 851 l 246 851 l 208 700 l 89 700 l 89 622 l 189 622 l 151 472 l 40 472 l 40 394 l 133 394 z m 232 472 l 271 622 l 408 622 l 371 472 z "},"$":{"ha":606,"x_min":0,"x_max":0,"o":"m 265 -8 l 265 -165 l 336 -165 l 336 -10 b 561 186 481 -1 561 72 b 344 397 561 293 490 354 l 336 400 l 336 631 b 454 543 396 618 432 582 l 524 588 b 336 708 493 640 429 694 l 336 857 l 265 857 l 265 710 b 63 529 142 701 63 626 b 265 329 63 425 131 367 l 265 69 b 100 185 183 82 131 129 l 25 144 b 265 -8 58 75 142 4 z m 265 633 l 265 422 b 154 533 185 447 154 475 b 265 633 154 593 196 626 z m 336 68 l 336 307 b 468 179 435 278 468 246 b 336 68 468 118 425 75 z "},"%":{"ha":1064,"x_min":0,"x_max":0,"o":"m 247 303 b 454 507 357 303 454 388 b 247 711 454 625 357 711 b 39 507 136 711 39 625 b 247 303 39 388 136 303 z m 265 0 l 363 0 l 800 700 l 703 700 z m 818 -11 b 1025 192 929 -11 1025 74 b 818 396 1025 310 929 396 b 611 192 707 396 611 310 b 818 -11 611 74 707 -11 z m 247 379 b 124 507 181 379 124 431 b 247 635 124 585 181 635 b 369 507 314 635 369 585 b 247 379 369 431 314 379 z m 818 64 b 696 192 751 64 696 115 b 818 319 696 268 751 319 b 940 192 885 319 940 268 b 818 64 940 115 885 64 z "},"&":{"ha":908,"x_min":0,"x_max":0,"o":"m 439 535 b 613 763 544 596 613 667 b 413 956 613 872 533 956 b 210 761 289 956 210 871 b 286 572 210 699 235 636 l 303 551 b 60 246 165 476 60 403 b 360 -11 60 90 176 -11 b 657 122 476 -11 581 36 l 758 0 l 879 0 l 713 203 b 783 511 757 286 783 389 l 688 511 b 647 282 688 422 674 346 z m 388 597 l 361 629 b 306 763 326 671 306 713 b 414 872 306 831 349 872 b 521 763 476 872 521 829 b 388 597 521 693 468 644 z m 597 194 b 360 78 539 118 456 78 b 164 251 236 78 164 143 b 353 490 164 368 240 429 z "},"’":{"ha":276,"x_min":0,"x_max":0,"o":"m 64 669 l 115 669 l 193 825 b 211 882 203 846 211 863 b 138 954 211 922 176 954 b 65 881 100 954 65 922 b 111 814 65 849 86 822 z "},"(":{"ha":400,"x_min":0,"x_max":0,"o":"m 300 -189 l 361 -139 b 163 404 253 -12 163 154 b 361 947 163 654 253 821 l 300 997 b 61 404 182 876 61 686 b 300 -189 61 121 182 -68 z "},")":{"ha":400,"x_min":0,"x_max":0,"o":"m 99 -189 b 339 404 217 -68 339 122 b 99 997 339 688 217 876 l 39 947 b 236 404 147 821 236 654 b 39 -139 236 154 147 -12 z "},"*":{"ha":547,"x_min":0,"x_max":0,"o":"m 229 521 l 317 521 l 296 694 l 433 593 l 475 668 l 313 733 l 476 799 l 433 874 l 296 774 l 317 944 l 229 944 l 250 774 l 114 874 l 71 799 l 233 733 l 71 668 l 114 593 l 250 694 z "},"+":{"ha":518,"x_min":0,"x_max":0,"o":"m 214 133 l 303 133 l 303 307 l 464 307 l 464 393 l 303 393 l 303 567 l 214 567 l 214 393 l 54 393 l 54 307 l 214 307 z "},",":{"ha":281,"x_min":0,"x_max":0,"o":"m 61 -156 l 115 -156 l 199 11 b 215 67 207 26 215 47 b 140 142 215 108 181 142 b 65 67 101 142 65 108 b 115 -1 65 33 86 8 z "},"-":{"ha":397,"x_min":0,"x_max":0,"o":"m 64 278 l 332 278 l 332 365 l 64 365 z "},"­":{"ha":397,"x_min":0,"x_max":0,"o":"m 64 278 l 332 278 l 332 365 l 64 365 z "},".":{"ha":281,"x_min":0,"x_max":0,"o":"m 140 -10 b 215 67 181 -10 215 24 b 140 142 215 110 181 142 b 65 67 101 142 65 110 b 140 -10 65 24 101 -10 z "},"/":{"ha":594,"x_min":0,"x_max":0,"o":"m 21 -178 l 118 -178 l 535 1003 l 438 1003 z "},":":{"ha":294,"x_min":0,"x_max":0,"o":"m 147 301 b 222 378 188 301 222 335 b 147 453 222 421 188 453 b 72 378 108 453 72 421 b 147 301 72 335 108 301 z m 147 -10 b 222 67 188 -10 222 24 b 147 142 222 110 188 142 b 72 67 108 142 72 110 b 147 -10 72 24 108 -10 z "},";":{"ha":294,"x_min":0,"x_max":0,"o":"m 147 301 b 222 378 188 301 222 335 b 147 453 222 421 188 453 b 72 378 108 453 72 421 b 147 301 72 335 108 301 z m 68 -156 l 122 -156 l 206 11 b 222 67 214 26 222 47 b 147 142 222 108 188 142 b 72 67 108 142 72 108 b 122 -1 72 33 93 8 z "},";":{"ha":294,"x_min":0,"x_max":0,"o":"m 147 301 b 222 378 188 301 222 335 b 147 453 222 421 188 453 b 72 378 108 453 72 421 b 147 301 72 335 108 301 z m 68 -156 l 122 -156 l 206 11 b 222 67 214 26 222 47 b 147 142 222 108 188 142 b 72 67 108 142 72 108 b 122 -1 72 33 93 8 z "},"<":{"ha":494,"x_min":0,"x_max":0,"o":"m 426 131 l 426 221 l 193 339 l 426 456 l 426 544 l 50 346 l 50 332 z "},"=":{"ha":515,"x_min":0,"x_max":0,"o":"m 58 392 l 457 392 l 457 476 l 58 476 z m 58 211 l 457 211 l 457 297 l 58 297 z "},">":{"ha":494,"x_min":0,"x_max":0,"o":"m 68 131 l 444 329 l 444 343 l 68 544 l 68 454 l 301 336 l 68 219 z "},"?":{"ha":651,"x_min":0,"x_max":0,"o":"m 242 260 l 333 260 l 333 428 b 582 690 481 439 582 543 b 308 956 582 849 472 956 b 38 788 182 956 83 897 l 118 746 b 308 868 160 829 215 868 b 482 690 411 868 482 800 b 288 504 482 588 411 504 l 242 504 z m 286 -10 b 360 64 325 -10 360 22 b 286 139 360 107 325 139 b 213 64 247 139 213 107 b 286 -10 213 22 247 -10 z "},"@":{"ha":1231,"x_min":0,"x_max":0,"o":"m 622 -286 b 886 -224 722 -286 808 -267 l 850 -154 b 622 -210 783 -190 704 -210 b 160 263 340 -210 160 -7 b 621 736 160 529 349 736 b 1076 300 901 736 1076 551 b 950 67 1076 135 1022 67 b 863 189 885 67 863 110 l 863 510 l 767 510 l 769 404 b 585 524 736 474 675 524 b 343 254 449 524 343 408 b 586 -11 343 100 449 -11 b 786 122 676 -11 746 32 b 947 -8 801 35 860 -8 b 1163 301 1071 -8 1163 88 b 621 814 1163 593 935 814 b 68 263 321 814 68 582 b 622 -286 68 -68 313 -286 z m 606 69 b 442 254 508 69 442 150 b 606 442 442 358 508 442 b 769 254 699 442 769 357 b 606 69 769 151 699 69 z "},"A":{"ha":911,"x_min":0,"x_max":0,"o":"m 51 0 l 150 0 l 213 158 l 690 158 l 754 0 l 860 0 l 460 954 l 443 954 z m 247 244 l 414 664 b 451 776 432 708 451 776 b 488 664 451 776 469 708 l 654 244 z "},"B":{"ha":846,"x_min":0,"x_max":0,"o":"m 129 0 l 483 0 b 782 278 685 0 782 121 b 588 525 782 403 710 496 b 710 713 668 551 710 619 b 450 944 710 840 626 944 l 129 944 z m 229 558 l 229 856 l 443 856 b 610 707 564 856 610 793 b 457 558 610 621 567 558 z m 229 89 l 229 472 l 471 472 b 681 281 615 472 681 392 b 476 89 681 171 621 89 z "},"C":{"ha":1008,"x_min":0,"x_max":0,"o":"m 560 -11 b 949 183 729 -11 865 61 l 871 238 b 560 79 803 139 697 79 b 179 472 339 79 179 247 b 560 865 179 697 339 865 b 858 717 696 865 797 807 l 935 772 b 560 956 854 893 726 956 b 75 472 292 956 75 757 b 560 -11 75 188 292 -11 z "},"D":{"ha":944,"x_min":0,"x_max":0,"o":"m 129 0 l 358 0 b 869 472 675 0 869 186 b 358 944 869 758 674 944 l 129 944 z m 229 90 l 229 854 l 351 854 b 764 472 631 854 764 697 b 351 90 764 247 631 90 z "},"E":{"ha":806,"x_min":0,"x_max":0,"o":"m 129 0 l 724 0 l 724 89 l 229 89 l 229 325 l 653 325 l 653 413 l 229 413 l 229 856 l 704 856 l 704 944 l 129 944 z "},"F":{"ha":772,"x_min":0,"x_max":0,"o":"m 129 0 l 229 0 l 229 321 l 654 321 l 654 413 l 229 413 l 229 856 l 697 856 l 697 944 l 129 944 z "},"G":{"ha":1032,"x_min":0,"x_max":0,"o":"m 569 -11 b 943 119 747 -11 874 51 l 943 449 l 568 449 l 568 360 l 849 360 l 849 165 b 569 79 790 118 699 79 b 179 472 340 79 179 247 b 561 865 179 697 339 865 b 822 765 678 865 761 829 l 890 833 b 561 956 813 917 697 956 b 75 472 286 956 75 757 b 569 -11 75 188 288 -11 z "},"H":{"ha":964,"x_min":0,"x_max":0,"o":"m 129 0 l 229 0 l 229 321 l 735 321 l 735 0 l 835 0 l 835 944 l 735 944 l 735 413 l 229 413 l 229 944 l 129 944 z "},"I":{"ha":368,"x_min":0,"x_max":0,"o":"m 133 0 l 235 0 l 235 944 l 133 944 z "},"J":{"ha":671,"x_min":0,"x_max":0,"o":"m 290 -11 b 543 249 436 -11 543 75 l 543 944 l 442 944 l 442 251 b 286 79 442 131 379 79 b 128 182 213 79 164 119 l 46 131 b 290 -11 89 51 164 -11 z "},"K":{"ha":843,"x_min":0,"x_max":0,"o":"m 221 368 b 229 497 224 399 229 453 l 229 944 l 129 944 l 129 0 l 229 0 l 229 278 l 343 415 l 672 0 l 796 0 l 408 489 l 758 944 l 646 944 l 289 485 b 221 368 271 461 242 408 z "},"L":{"ha":732,"x_min":0,"x_max":0,"o":"m 129 0 l 675 0 l 675 89 l 229 89 l 229 944 l 129 944 z "},"M":{"ha":1163,"x_min":0,"x_max":0,"o":"m 129 0 l 226 0 l 226 624 b 221 732 226 667 221 732 b 289 633 221 732 258 671 l 571 272 l 588 272 l 874 633 b 940 732 904 671 940 732 b 936 624 940 732 936 667 l 936 0 l 1033 0 l 1033 956 l 1018 956 l 582 407 l 143 956 l 129 956 z "},"N":{"ha":990,"x_min":0,"x_max":0,"o":"m 844 -10 l 861 -10 l 861 944 l 768 944 l 768 307 b 775 200 768 267 775 200 b 710 288 775 200 736 256 l 146 954 l 129 954 l 129 0 l 224 0 l 224 638 b 215 744 224 678 215 744 b 281 657 215 744 254 689 z "},"O":{"ha":1121,"x_min":0,"x_max":0,"o":"m 560 -11 b 1046 472 829 -11 1046 188 b 560 956 1046 757 829 956 b 75 472 292 956 75 757 b 560 -11 75 188 292 -11 z m 560 79 b 179 472 340 79 179 247 b 560 865 179 697 340 865 b 942 472 781 865 942 697 b 560 79 942 247 781 79 z "},"P":{"ha":811,"x_min":0,"x_max":0,"o":"m 129 0 l 229 0 l 229 235 l 343 235 b 733 589 601 235 733 381 b 343 944 733 801 601 944 l 129 944 z m 229 322 l 229 856 l 338 856 b 629 589 550 856 629 744 b 338 322 629 433 550 322 z "},"Q":{"ha":1121,"x_min":0,"x_max":0,"o":"m 904 124 b 1046 472 992 210 1046 331 b 560 956 1046 757 829 956 b 75 472 292 956 75 757 b 560 -11 75 188 292 -11 b 833 68 661 -11 756 18 l 978 -87 l 1047 -29 z m 769 138 b 560 79 711 100 640 79 b 179 472 340 79 179 247 b 560 865 179 697 340 865 b 942 472 781 865 942 697 b 839 194 942 361 904 264 l 694 351 l 626 293 z "},"R":{"ha":828,"x_min":0,"x_max":0,"o":"m 536 290 b 733 596 667 343 733 454 b 342 944 733 800 600 944 l 129 944 l 129 0 l 229 0 l 229 250 l 342 250 b 442 258 375 250 410 253 l 624 0 l 742 0 z m 229 338 l 229 856 l 336 856 b 629 596 549 856 629 744 b 336 338 629 447 550 338 z "},"S":{"ha":738,"x_min":0,"x_max":0,"o":"m 369 -11 b 663 239 539 -11 663 83 b 425 528 663 381 582 458 l 350 563 b 200 732 244 611 200 649 b 350 867 200 813 257 867 b 525 764 439 867 489 822 l 606 814 b 350 956 556 897 476 956 b 101 729 208 956 101 865 b 310 471 101 597 175 532 l 385 436 b 563 239 503 383 563 335 b 367 78 563 139 476 78 b 124 225 233 78 168 146 l 40 181 b 369 -11 90 81 189 -11 z "},"T":{"ha":772,"x_min":0,"x_max":0,"o":"m 336 0 l 436 0 l 436 856 l 726 856 l 726 944 l 46 944 l 46 856 l 336 856 z "},"U":{"ha":919,"x_min":0,"x_max":0,"o":"m 460 -11 b 799 322 651 -11 799 101 l 799 944 l 699 944 l 699 329 b 460 78 699 161 606 78 b 221 329 313 78 221 161 l 221 944 l 121 944 l 121 322 b 460 -11 121 101 267 -11 z "},"V":{"ha":911,"x_min":0,"x_max":0,"o":"m 450 -10 l 467 -10 l 860 944 l 758 944 l 500 304 b 460 176 481 257 460 176 b 419 304 460 176 439 257 l 160 944 l 51 944 z "},"W":{"ha":1324,"x_min":0,"x_max":0,"o":"m 361 -10 l 378 -10 l 636 663 b 665 756 651 701 665 756 b 693 663 665 756 678 701 l 947 -10 l 964 -10 l 1275 944 l 1174 944 l 976 315 b 950 213 964 275 950 213 b 919 315 950 213 935 275 l 674 954 l 657 954 l 411 315 b 381 213 396 275 381 213 b 354 315 381 213 367 274 l 156 944 l 49 944 z "},"X":{"ha":882,"x_min":0,"x_max":0,"o":"m 60 0 l 169 0 l 408 378 b 438 444 424 403 438 444 b 469 378 438 444 454 403 l 710 0 l 824 0 l 497 514 l 768 944 l 658 944 l 472 650 b 443 585 457 626 443 585 b 413 650 443 585 428 625 l 225 944 l 111 944 l 383 514 z "},"Y":{"ha":911,"x_min":0,"x_max":0,"o":"m 408 0 l 511 0 l 511 300 l 861 944 l 757 944 l 501 475 b 461 379 482 438 461 379 b 421 475 461 379 442 439 l 164 944 l 51 944 l 408 296 z "},"Z":{"ha":807,"x_min":0,"x_max":0,"o":"m 54 0 l 740 0 l 740 89 l 211 89 l 738 929 l 738 944 l 129 944 l 129 856 l 582 856 l 54 15 z "},"[":{"ha":424,"x_min":0,"x_max":0,"o":"m 106 -178 l 374 -178 l 374 -94 l 203 -94 l 203 919 l 374 919 l 374 1003 l 106 1003 z "},"\\":{"ha":596,"x_min":0,"x_max":0,"o":"m 478 -178 l 575 -178 l 157 1003 l 60 1003 z "},"]":{"ha":424,"x_min":0,"x_max":0,"o":"m 50 -178 l 319 -178 l 319 1003 l 50 1003 l 50 919 l 221 919 l 221 -94 l 50 -94 z "},"^":{"ha":579,"x_min":0,"x_max":0,"o":"m 94 643 l 175 643 l 290 818 l 404 643 l 485 643 l 296 956 l 283 956 z "},"_":{"ha":356,"x_min":0,"x_max":0,"o":"m -3 -178 l 358 -178 l 358 -92 l -3 -92 z "},"‘":{"ha":276,"x_min":0,"x_max":0,"o":"m 139 660 b 211 733 176 660 211 692 b 165 800 211 765 189 792 l 213 944 l 160 944 l 83 789 b 65 732 72 768 65 751 b 139 660 65 692 100 660 z "},"a":{"ha":654,"x_min":0,"x_max":0,"o":"m 460 338 l 281 338 b 63 164 160 338 63 282 b 274 -11 63 44 151 -11 b 464 86 365 -11 425 28 l 460 0 l 557 0 l 557 353 b 332 588 557 513 460 588 b 97 476 222 588 147 544 l 157 422 b 325 506 193 471 244 506 b 460 351 410 506 460 463 z m 460 264 l 460 192 b 296 68 460 117 385 68 b 157 168 206 68 157 103 b 288 264 157 238 214 264 z "},"b":{"ha":765,"x_min":0,"x_max":0,"o":"m 419 -11 b 699 289 576 -11 699 117 b 421 588 699 460 578 588 b 200 457 314 588 242 533 l 200 1003 l 104 1003 l 104 0 l 200 0 l 197 124 b 419 -11 236 44 317 -11 z m 400 74 b 196 289 278 74 196 164 b 400 501 196 413 278 501 b 599 289 521 501 599 413 b 400 74 599 164 521 74 z "},"c":{"ha":649,"x_min":0,"x_max":0,"o":"m 365 -11 b 597 92 472 -11 543 26 l 531 149 b 365 74 494 106 444 74 b 167 288 243 74 167 165 b 365 501 167 410 243 501 b 522 428 438 501 488 474 l 592 485 b 365 588 539 549 468 588 b 67 288 196 588 67 456 b 365 -11 67 119 196 -11 z "},"d":{"ha":765,"x_min":0,"x_max":0,"o":"m 346 -11 b 568 124 449 -11 529 44 l 565 0 l 661 0 l 661 1003 l 565 1003 l 565 457 b 344 588 524 533 454 588 b 67 289 189 588 67 460 b 346 -11 67 117 189 -11 z m 365 74 b 167 289 244 74 167 164 b 365 501 167 413 244 501 b 569 289 488 501 569 413 b 365 74 569 164 488 74 z "},"e":{"ha":717,"x_min":0,"x_max":0,"o":"m 164 256 l 653 256 b 364 588 660 446 549 588 b 67 288 196 588 67 456 b 378 -11 67 119 189 -11 b 619 89 490 -11 567 29 l 560 147 b 378 71 522 106 464 71 b 164 256 251 71 176 146 z m 165 329 b 364 506 181 435 254 506 b 556 329 485 506 547 428 z "},"f":{"ha":442,"x_min":0,"x_max":0,"o":"m 140 0 l 238 0 l 238 493 l 392 493 l 392 575 l 238 575 l 238 836 b 308 933 238 910 267 933 b 382 893 347 933 364 917 l 446 950 b 300 1021 417 993 371 1021 b 140 836 206 1021 140 965 l 140 575 l 47 575 l 47 493 l 140 493 z "},"g":{"ha":654,"x_min":0,"x_max":0,"o":"m 408 575 b 326 588 383 583 356 588 b 97 383 193 588 97 503 b 160 242 97 326 119 276 b 81 136 111 222 81 185 b 161 29 81 86 107 47 b 25 -121 81 4 25 -42 b 319 -310 25 -236 135 -310 b 625 -106 510 -310 625 -231 b 383 76 625 4 547 64 l 236 88 b 161 146 188 90 161 108 b 208 204 161 174 178 196 b 326 178 242 186 282 178 b 550 383 460 178 550 265 b 504 501 550 431 533 471 l 617 501 l 617 575 z m 325 253 b 186 383 238 253 186 306 b 325 513 186 461 238 513 b 463 383 411 513 463 461 b 325 253 463 306 411 253 z m 222 0 l 367 -10 b 526 -110 489 -18 526 -46 b 319 -232 526 -187 449 -232 b 121 -112 186 -232 121 -189 b 222 0 121 -54 161 -18 z "},"h":{"ha":717,"x_min":0,"x_max":0,"o":"m 103 0 l 200 0 l 200 317 b 379 499 200 431 272 499 b 522 339 475 499 522 440 l 522 0 l 619 0 l 619 350 b 404 588 619 500 532 588 b 200 463 311 588 236 539 l 200 1003 l 103 1003 z "},"i":{"ha":308,"x_min":0,"x_max":0,"o":"m 154 742 b 224 810 190 742 224 769 b 154 879 224 850 190 879 b 85 810 118 879 85 850 b 154 742 85 769 118 742 z m 106 0 l 203 0 l 203 575 l 106 575 z "},"j":{"ha":308,"x_min":0,"x_max":0,"o":"m 154 742 b 224 810 190 742 224 769 b 154 879 224 850 190 879 b 85 810 118 879 85 850 b 154 742 85 769 118 742 z m 49 -308 b 203 -136 140 -308 203 -250 l 203 575 l 106 575 l 106 -137 b 42 -225 106 -201 81 -225 b -25 -193 10 -225 -7 -210 l -79 -251 b 49 -308 -53 -281 -12 -308 z "},"k":{"ha":643,"x_min":0,"x_max":0,"o":"m 200 175 l 290 269 l 499 0 l 614 0 l 358 333 l 579 575 l 467 575 l 193 278 b 200 360 197 301 200 331 l 200 1003 l 103 1003 l 103 0 l 200 0 z "},"l":{"ha":317,"x_min":0,"x_max":0,"o":"m 110 0 l 207 0 l 207 1003 l 110 1003 z "},"m":{"ha":1051,"x_min":0,"x_max":0,"o":"m 103 0 l 200 0 l 200 322 b 356 499 200 436 264 499 b 481 356 444 499 481 447 l 481 0 l 578 0 l 578 322 b 732 499 578 436 640 499 b 858 356 822 499 858 447 l 858 0 l 954 0 l 954 368 b 750 588 954 504 876 588 b 551 467 667 588 594 544 b 378 588 526 539 468 588 b 197 467 297 588 235 544 l 200 575 l 103 575 z "},"n":{"ha":717,"x_min":0,"x_max":0,"o":"m 103 0 l 200 0 l 200 317 b 379 499 200 431 272 499 b 522 339 475 499 522 440 l 522 0 l 619 0 l 619 350 b 404 588 619 500 532 588 b 197 457 311 588 235 539 l 200 575 l 103 575 z "},"o":{"ha":742,"x_min":0,"x_max":0,"o":"m 372 -11 b 675 288 543 -11 675 119 b 372 588 675 456 543 588 b 67 288 200 588 67 456 b 372 -11 67 119 200 -11 z m 372 72 b 165 288 249 72 165 164 b 372 503 165 411 249 503 b 576 288 494 503 576 411 b 372 72 576 164 494 72 z "},"p":{"ha":765,"x_min":0,"x_max":0,"o":"m 104 -294 l 200 -294 l 200 119 b 419 -11 238 44 317 -11 b 699 289 576 -11 699 117 b 421 588 699 460 578 588 b 197 451 313 588 238 531 l 200 575 l 104 575 z m 400 74 b 196 289 278 74 196 164 b 400 501 196 413 278 501 b 599 289 521 501 599 413 b 400 74 599 164 521 74 z "},"q":{"ha":767,"x_min":0,"x_max":0,"o":"m 565 -294 l 663 -294 l 663 575 l 565 575 l 568 451 b 344 588 528 531 454 588 b 67 289 189 588 67 460 b 346 -11 67 117 189 -11 b 565 119 449 -11 528 44 z m 365 74 b 167 289 244 74 167 164 b 365 501 167 413 244 501 b 569 289 488 501 569 413 b 365 74 569 164 488 74 z "},"r":{"ha":496,"x_min":0,"x_max":0,"o":"m 103 0 l 200 0 l 200 303 b 349 496 200 438 267 496 b 428 474 385 496 410 486 l 465 558 b 365 586 439 576 408 586 b 197 463 297 586 233 550 l 200 575 l 103 575 z "},"s":{"ha":569,"x_min":0,"x_max":0,"o":"m 296 -11 b 506 160 440 -11 506 63 b 315 336 506 271 413 310 b 179 435 214 365 179 381 b 279 508 179 479 217 508 b 404 443 335 508 375 483 l 471 494 b 279 588 431 551 367 588 b 90 431 174 588 90 531 b 264 260 90 322 174 286 b 414 154 364 231 414 217 b 292 68 414 101 369 68 b 125 165 208 68 158 110 l 50 122 b 296 -11 88 50 169 -11 z "},"t":{"ha":467,"x_min":0,"x_max":0,"o":"m 290 -12 b 431 44 361 -12 406 18 l 378 106 b 300 72 360 89 339 72 b 232 172 258 72 232 96 l 232 493 l 393 493 l 393 575 l 232 575 l 232 875 l 136 875 l 136 575 l 47 575 l 47 493 l 136 493 l 136 174 b 290 -12 136 38 203 -12 z "},"u":{"ha":715,"x_min":0,"x_max":0,"o":"m 313 -12 b 518 117 406 -12 481 36 l 515 0 l 613 0 l 613 575 l 515 575 l 515 258 b 336 76 515 146 444 76 b 194 232 242 76 194 132 l 194 575 l 97 575 l 97 222 b 313 -12 97 75 185 -12 z "},"v":{"ha":642,"x_min":0,"x_max":0,"o":"m 314 -11 l 332 -11 l 607 575 l 507 575 l 357 243 b 326 144 339 204 326 144 b 294 243 326 144 313 204 l 142 575 l 35 575 z "},"w":{"ha":949,"x_min":0,"x_max":0,"o":"m 271 -12 l 285 -12 l 447 333 b 475 418 463 367 475 418 b 503 333 475 418 486 368 l 661 -12 l 675 -12 l 914 575 l 815 575 l 692 260 b 665 169 676 222 665 169 b 635 260 665 169 653 221 l 482 583 l 469 583 l 319 258 b 290 169 301 221 290 169 b 264 258 290 169 279 221 l 140 575 l 35 575 z "},"x":{"ha":653,"x_min":0,"x_max":0,"o":"m 43 0 l 150 0 l 288 189 b 321 253 304 211 321 253 b 357 189 321 253 342 211 l 493 0 l 610 0 l 381 313 l 575 575 l 468 575 l 358 425 b 331 365 342 403 331 365 b 297 425 331 365 314 403 l 189 575 l 74 575 l 271 306 z "},"y":{"ha":642,"x_min":0,"x_max":0,"o":"m 132 -294 l 232 -294 l 607 575 l 507 575 l 357 218 b 331 121 340 182 331 121 b 304 218 331 121 319 182 l 142 575 l 35 575 l 279 49 z "},"z":{"ha":579,"x_min":0,"x_max":0,"o":"m 44 0 l 526 0 l 526 81 l 199 81 l 533 560 l 533 575 l 81 575 l 81 494 l 376 494 l 44 14 z "},"{":{"ha":510,"x_min":0,"x_max":0,"o":"m 381 -178 l 460 -178 l 460 -94 l 386 -94 b 294 24 328 -94 294 -68 l 294 242 b 204 371 294 328 256 360 b 294 499 256 382 294 413 l 294 801 b 386 919 294 893 328 919 l 460 919 l 460 1003 l 381 1003 b 196 803 286 1003 196 965 l 196 508 b 115 413 196 435 167 413 l 35 413 l 35 328 l 115 328 b 196 232 167 328 196 306 l 196 22 b 381 -178 196 -140 286 -178 z "},"|":{"ha":329,"x_min":0,"x_max":0,"o":"m 118 -178 l 211 -178 l 211 1003 l 118 1003 z "},"}":{"ha":508,"x_min":0,"x_max":0,"o":"m 50 -178 l 129 -178 b 313 22 222 -178 313 -140 l 313 233 b 394 328 313 306 343 328 l 474 328 l 474 413 l 394 413 b 313 510 343 413 313 436 l 313 803 b 129 1003 313 965 222 1003 l 50 1003 l 50 919 l 124 919 b 215 801 182 919 215 893 l 215 499 b 306 369 215 413 254 381 b 215 242 254 360 215 328 l 215 24 b 124 -94 215 -68 182 -94 l 50 -94 z "},"~":{"ha":546,"x_min":0,"x_max":0,"o":"m 143 311 b 193 393 149 367 167 393 b 261 356 217 393 226 385 b 357 310 292 328 317 310 b 475 463 426 310 471 363 l 403 469 b 353 388 397 413 383 388 b 286 426 331 388 321 397 b 190 472 256 454 231 472 b 71 318 122 472 75 418 z "},"¡":{"ha":339,"x_min":0,"x_max":0,"o":"m 169 954 b 96 881 131 954 96 922 b 169 806 96 838 131 806 b 243 881 208 806 243 838 b 169 954 243 922 208 954 z m 207 681 l 132 681 l 115 0 l 224 0 z "},"¢":{"ha":653,"x_min":0,"x_max":0,"o":"m 324 -8 l 324 -161 l 394 -161 l 394 -10 b 600 92 486 -4 550 32 l 533 149 b 394 74 500 108 458 81 l 394 501 b 525 429 453 494 494 468 l 593 485 b 394 586 546 543 482 581 l 394 735 l 324 735 l 324 585 b 67 288 175 565 67 442 b 324 -8 67 133 175 11 z m 324 499 l 324 76 b 165 288 225 94 165 179 b 324 499 165 396 226 481 z "},"£":{"ha":756,"x_min":0,"x_max":0,"o":"m 229 361 b 281 206 251 310 272 258 b 175 236 247 224 214 236 b 39 115 96 236 39 188 b 183 -11 39 42 96 -11 b 340 72 250 -11 308 24 b 538 -11 393 29 457 -11 b 719 75 622 -11 679 25 l 661 135 b 535 75 629 99 592 75 b 367 149 471 75 419 111 l 367 156 b 324 361 367 229 346 297 l 519 361 l 519 439 l 294 439 b 254 617 272 499 254 557 b 415 771 254 714 315 771 b 590 660 507 771 553 732 l 671 704 b 415 858 631 790 543 858 b 153 621 256 858 153 754 b 196 439 153 558 172 499 l 97 439 l 97 361 z m 279 122 b 182 56 265 83 225 56 b 118 113 142 56 118 79 b 182 169 118 146 142 169 b 279 122 214 169 244 149 z "},"⁄":{"ha":488,"x_min":0,"x_max":0,"o":"m -24 0 l 74 0 l 511 700 l 414 700 z "},"∕":{"ha":488,"x_min":0,"x_max":0,"o":"m -24 0 l 74 0 l 511 700 l 414 700 z "},"¥":{"ha":775,"x_min":0,"x_max":0,"o":"m 231 406 l 81 406 l 81 328 l 276 328 l 333 232 l 81 232 l 81 154 l 338 154 l 338 0 l 438 0 l 438 154 l 693 154 l 693 232 l 442 232 l 499 328 l 693 328 l 693 406 l 544 406 l 718 700 l 615 700 l 429 376 b 390 283 407 336 390 283 b 353 376 390 283 375 336 l 167 700 l 57 700 z "},"ƒ":{"ha":497,"x_min":0,"x_max":0,"o":"m 242 282 l 381 282 l 381 361 l 250 361 l 286 676 b 367 775 294 751 324 775 b 439 729 404 775 421 756 l 506 783 b 363 858 478 829 438 858 b 192 672 271 858 206 803 l 156 361 l 53 361 l 53 282 l 147 282 l 82 -294 l 176 -294 z "},"§":{"ha":688,"x_min":0,"x_max":0,"o":"m 157 563 b 44 413 89 533 44 482 b 229 207 44 314 101 256 l 353 158 b 467 43 431 128 467 99 b 335 -61 467 -19 418 -61 b 160 46 249 -61 192 -17 l 82 7 b 338 -143 121 -78 214 -143 b 564 43 483 -143 564 -67 b 532 146 564 83 553 117 b 643 290 597 172 643 221 b 458 492 643 378 589 440 l 322 546 b 224 668 250 575 224 608 b 349 778 224 736 272 778 b 489 682 425 778 463 736 l 568 718 b 346 858 531 801 463 858 b 129 665 222 858 129 779 b 157 563 129 625 139 592 z m 485 192 b 381 246 456 214 421 231 l 254 294 b 138 424 167 329 138 361 b 194 517 138 464 156 497 b 294 458 222 493 257 474 l 431 404 b 551 278 524 367 551 335 b 485 192 551 238 526 210 z "},"¤":{"ha":863,"x_min":0,"x_max":0,"o":"m 157 393 b 154 350 156 379 154 365 b 157 306 154 335 156 319 l 56 306 l 56 228 l 174 228 b 513 -11 222 85 356 -11 b 797 129 644 -11 740 42 l 726 179 b 513 74 678 114 618 74 b 276 228 404 74 315 132 l 576 228 l 576 306 l 256 306 b 253 350 254 319 253 335 b 256 393 253 365 254 379 l 576 393 l 576 471 l 275 471 b 513 626 314 567 401 626 b 717 525 610 626 668 590 l 789 581 b 513 711 725 665 636 711 b 174 471 354 711 221 615 l 56 471 l 56 393 z "},"'":{"ha":214,"x_min":0,"x_max":0,"o":"m 67 653 l 147 653 l 158 944 l 56 944 z "},"“":{"ha":496,"x_min":0,"x_max":0,"o":"m 358 660 b 431 733 396 660 431 692 b 385 800 431 765 410 792 l 432 944 l 381 944 l 303 789 b 285 732 293 768 285 751 b 358 660 285 692 319 660 z m 139 660 b 211 733 176 660 211 692 b 165 800 211 765 189 792 l 213 944 l 160 944 l 83 789 b 65 732 72 768 65 751 b 139 660 65 692 100 660 z "},"«":{"ha":551,"x_min":0,"x_max":0,"o":"m 399 51 l 499 51 l 365 278 l 499 501 l 399 501 l 268 283 l 268 272 z m 183 51 l 283 51 l 150 278 l 283 501 l 183 501 l 53 283 l 53 272 z "},"‹":{"ha":336,"x_min":0,"x_max":0,"o":"m 183 51 l 283 51 l 150 278 l 283 501 l 183 501 l 53 283 l 53 272 z "},"›":{"ha":336,"x_min":0,"x_max":0,"o":"m 53 51 l 153 51 l 283 271 l 283 282 l 153 501 l 53 501 l 186 276 z "},"ﬁ":{"ha":699,"x_min":0,"x_max":0,"o":"m 544 742 b 614 810 581 742 614 769 b 544 879 614 850 581 879 b 475 810 508 879 475 850 b 544 742 475 769 508 742 z m 140 0 l 238 0 l 238 493 l 496 493 l 496 0 l 593 0 l 593 575 l 238 575 l 238 836 b 308 933 238 911 267 933 b 379 900 342 933 360 921 l 440 958 b 301 1021 414 992 371 1021 b 140 836 206 1021 140 965 l 140 575 l 47 575 l 47 493 l 140 493 z "},"ﬂ":{"ha":704,"x_min":0,"x_max":0,"o":"m 140 0 l 238 0 l 238 493 l 385 493 l 385 575 l 238 575 l 238 785 b 368 933 238 889 292 933 b 496 785 444 933 496 889 l 496 0 l 593 0 l 593 792 b 368 1021 593 950 486 1021 b 140 786 249 1021 140 942 l 140 575 l 47 575 l 47 493 l 140 493 z "},"–":{"ha":547,"x_min":0,"x_max":0,"o":"m 49 226 l 497 226 l 497 311 l 49 311 z "},"†":{"ha":468,"x_min":0,"x_max":0,"o":"m 189 389 l 279 389 l 279 719 l 408 719 l 408 800 l 279 800 l 279 944 l 189 944 l 189 800 l 60 800 l 60 719 l 189 719 z "},"‡":{"ha":468,"x_min":0,"x_max":0,"o":"m 189 389 l 279 389 l 279 535 l 408 535 l 408 610 l 279 610 l 279 724 l 408 724 l 408 800 l 279 800 l 279 944 l 189 944 l 189 800 l 60 800 l 60 724 l 189 724 l 189 610 l 60 610 l 60 535 l 189 535 z "},"·":{"ha":281,"x_min":0,"x_max":0,"o":"m 140 263 b 215 339 181 263 215 296 b 140 414 215 382 181 414 b 65 339 101 414 65 382 b 140 263 65 296 101 263 z "},"∙":{"ha":281,"x_min":0,"x_max":0,"o":"m 140 263 b 215 339 181 263 215 296 b 140 414 215 382 181 414 b 65 339 101 414 65 382 b 140 263 65 296 101 263 z "},"¶":{"ha":868,"x_min":0,"x_max":0,"o":"m 433 0 l 532 0 l 532 858 l 643 858 l 643 0 l 739 0 l 739 944 l 344 944 b 71 682 172 944 71 824 b 344 422 71 539 172 422 l 433 422 z m 346 507 b 178 683 240 507 178 578 b 346 858 178 789 240 858 l 433 858 l 433 507 z "},"•":{"ha":388,"x_min":0,"x_max":0,"o":"m 193 233 b 325 364 264 233 325 292 b 193 496 325 439 264 496 b 63 364 122 496 63 439 b 193 233 63 292 122 233 z "},"‚":{"ha":276,"x_min":0,"x_max":0,"o":"m 64 -143 l 115 -143 l 193 14 b 211 69 203 33 211 51 b 138 142 211 110 176 142 b 65 69 100 142 65 110 b 111 3 65 36 86 10 z "},"„":{"ha":496,"x_min":0,"x_max":0,"o":"m 283 -143 l 336 -143 l 413 14 b 431 69 424 33 431 51 b 357 142 431 110 396 142 b 285 69 319 142 285 110 b 331 3 285 36 307 10 z m 64 -143 l 115 -143 l 193 14 b 211 69 203 33 211 51 b 138 142 211 110 176 142 b 65 69 100 142 65 110 b 111 3 65 36 86 10 z "},"”":{"ha":496,"x_min":0,"x_max":0,"o":"m 283 669 l 336 669 l 413 825 b 431 882 424 846 431 863 b 357 954 431 922 396 954 b 285 881 319 954 285 922 b 331 814 285 849 307 822 z m 64 669 l 115 669 l 193 825 b 211 882 203 846 211 863 b 138 954 211 922 176 954 b 65 881 100 954 65 922 b 111 814 65 849 86 822 z "},"»":{"ha":551,"x_min":0,"x_max":0,"o":"m 268 51 l 368 51 l 499 271 l 499 282 l 368 501 l 268 501 l 401 276 z m 53 51 l 153 51 l 283 271 l 283 282 l 153 501 l 53 501 l 186 276 z "},"…":{"ha":856,"x_min":0,"x_max":0,"o":"m 715 -10 b 790 67 756 -10 790 24 b 715 142 790 110 756 142 b 640 67 676 142 640 110 b 715 -10 640 24 676 -10 z m 428 -10 b 503 67 468 -10 503 24 b 428 142 503 110 468 142 b 353 67 389 142 353 110 b 428 -10 353 24 389 -10 z m 140 -10 b 215 67 181 -10 215 24 b 140 142 215 110 181 142 b 65 67 101 142 65 110 b 140 -10 65 24 101 -10 z "},"‰":{"ha":1543,"x_min":0,"x_max":0,"o":"m 247 303 b 454 507 357 303 454 388 b 247 711 454 625 357 711 b 39 507 136 711 39 625 b 247 303 39 388 136 303 z m 265 0 l 363 0 l 800 700 l 703 700 z m 1297 -11 b 1504 192 1408 -11 1504 74 b 1297 396 1504 310 1408 396 b 1090 192 1188 396 1090 310 b 1297 -11 1090 74 1188 -11 z m 818 -11 b 1025 192 929 -11 1025 74 b 818 396 1025 310 929 396 b 611 192 707 396 611 310 b 818 -11 611 74 707 -11 z m 247 379 b 124 507 181 379 124 431 b 247 635 124 585 181 635 b 369 507 314 635 369 585 b 247 379 369 431 314 379 z m 1297 64 b 1175 192 1232 64 1175 115 b 1297 319 1175 268 1232 319 b 1419 192 1364 319 1419 268 b 1297 64 1419 115 1364 64 z m 818 64 b 696 192 751 64 696 115 b 818 319 696 268 751 319 b 940 192 885 319 940 268 b 818 64 940 115 885 64 z "},"¿":{"ha":651,"x_min":0,"x_max":0,"o":"m 365 954 b 292 881 326 954 292 922 b 365 806 292 838 326 806 b 439 881 404 806 439 838 b 365 954 439 922 404 954 z m 410 685 l 318 685 l 318 517 b 69 254 171 506 69 401 b 343 -11 69 96 179 -11 b 614 157 469 -11 568 47 l 533 199 b 343 76 492 115 436 76 b 169 254 240 76 169 144 b 364 440 169 357 240 440 l 410 440 z "},"`":{"ha":694,"x_min":0,"x_max":0,"o":"m 311 692 l 388 692 l 293 960 l 182 960 z "},"´":{"ha":694,"x_min":0,"x_max":0,"o":"m 307 692 l 383 692 l 513 960 l 401 960 z "},"ˆ":{"ha":694,"x_min":0,"x_max":0,"o":"m 163 689 l 247 689 l 347 826 l 446 689 l 531 689 l 353 957 l 340 957 z "},"˜":{"ha":694,"x_min":0,"x_max":0,"o":"m 217 685 b 268 767 222 740 240 767 b 335 728 290 767 300 758 b 431 682 365 701 392 682 b 550 835 500 682 544 736 l 478 842 b 428 761 472 786 457 761 b 361 800 406 761 396 769 b 265 844 331 826 304 844 b 144 690 197 844 150 790 z "},"¯":{"ha":694,"x_min":0,"x_max":0,"o":"m 201 719 l 493 719 l 493 796 l 201 796 z "},"ˉ":{"ha":694,"x_min":0,"x_max":0,"o":"m 201 719 l 493 719 l 493 796 l 201 796 z "},"˘":{"ha":694,"x_min":0,"x_max":0,"o":"m 347 679 b 529 840 454 679 515 749 l 451 854 b 347 756 439 799 413 756 b 243 854 282 756 256 799 l 165 840 b 347 679 179 749 240 679 z "},"˙":{"ha":694,"x_min":0,"x_max":0,"o":"m 347 717 b 413 781 381 717 413 743 b 347 846 413 818 381 846 b 282 781 314 846 282 818 b 347 717 282 743 314 717 z "},"¨":{"ha":694,"x_min":0,"x_max":0,"o":"m 468 717 b 532 781 501 717 532 746 b 468 844 532 817 501 844 b 403 781 435 844 403 817 b 468 717 403 746 435 717 z m 226 717 b 292 781 261 717 292 746 b 226 844 292 817 261 844 b 163 781 193 844 163 817 b 226 717 163 746 193 717 z "},"˚":{"ha":694,"x_min":0,"x_max":0,"o":"m 347 672 b 493 811 429 672 493 735 b 347 951 493 889 429 951 b 201 811 265 951 201 889 b 347 672 201 735 265 672 z m 347 735 b 275 811 304 735 275 765 b 347 888 275 858 304 888 b 419 811 390 888 419 858 b 347 735 419 765 390 735 z "},"¸":{"ha":694,"x_min":0,"x_max":0,"o":"m 356 -322 b 489 -200 424 -322 489 -278 b 375 -74 489 -126 433 -82 l 375 0 l 308 0 l 308 -129 l 339 -129 b 413 -194 389 -129 413 -158 b 350 -257 413 -236 383 -257 b 275 -206 307 -257 292 -233 l 215 -240 b 356 -322 238 -285 283 -322 z "},"˝":{"ha":694,"x_min":0,"x_max":0,"o":"m 401 692 l 478 692 l 601 960 l 496 960 z m 210 692 l 286 692 l 408 960 l 303 960 z "},"˛":{"ha":694,"x_min":0,"x_max":0,"o":"m 331 -322 b 467 -240 401 -322 443 -286 l 406 -206 b 335 -254 390 -231 371 -254 b 281 -197 306 -254 281 -236 b 324 -82 281 -156 294 -129 l 374 0 l 303 0 l 258 -60 b 201 -200 229 -99 201 -143 b 331 -322 201 -282 263 -322 z "},"ˇ":{"ha":694,"x_min":0,"x_max":0,"o":"m 342 678 l 354 678 l 532 946 l 447 946 l 347 808 l 249 946 l 164 946 z "},"—":{"ha":865,"x_min":0,"x_max":0,"o":"m 49 226 l 817 226 l 817 311 l 49 311 z "},"Æ":{"ha":1324,"x_min":0,"x_max":0,"o":"m 38 0 l 144 0 l 250 158 l 647 158 l 647 0 l 1242 0 l 1242 89 l 749 89 l 749 325 l 1171 325 l 1171 413 l 749 413 l 749 856 l 1222 856 l 1222 944 l 668 944 z m 310 247 l 600 688 b 657 792 629 731 657 792 b 647 675 657 792 647 725 l 647 247 z "},"ª":{"ha":558,"x_min":0,"x_max":0,"o":"m 394 504 l 247 504 b 54 354 143 504 54 456 b 238 203 54 253 135 203 b 396 278 308 203 364 232 l 394 214 l 485 214 l 485 507 b 288 711 485 653 397 711 b 85 615 188 711 122 668 l 140 567 b 281 636 167 599 207 636 b 394 504 350 636 394 607 z m 394 436 l 394 381 b 258 275 394 314 333 275 b 144 357 188 275 144 301 b 257 436 144 417 193 436 z "},"Ł":{"ha":738,"x_min":0,"x_max":0,"o":"m 133 0 l 681 0 l 681 89 l 235 89 l 235 313 l 511 422 l 511 513 l 235 404 l 235 944 l 133 944 l 133 367 l 29 326 l 29 236 l 133 276 z "},"Ø":{"ha":1121,"x_min":0,"x_max":0,"o":"m 936 786 l 1047 896 l 986 957 l 875 846 b 560 956 790 915 681 956 b 75 472 292 956 75 757 b 185 158 75 349 117 240 l 72 47 l 135 -14 l 246 97 b 560 -11 331 28 440 -11 b 1046 472 829 -11 1046 188 b 936 786 1046 596 1004 704 z m 256 229 b 179 472 207 296 179 379 b 560 865 179 697 340 865 b 806 778 656 865 742 833 b 256 229 807 778 256 229 z m 865 715 b 942 472 914 649 942 565 b 560 79 942 247 781 79 b 315 165 465 79 381 111 z "},"Œ":{"ha":1371,"x_min":0,"x_max":0,"o":"m 572 0 l 1289 0 l 1289 89 l 796 89 l 796 325 l 1218 325 l 1218 413 l 796 413 l 796 856 l 1269 856 l 1269 944 l 572 944 b 75 472 264 944 75 751 b 572 0 75 193 265 0 z m 581 90 b 179 472 311 90 179 247 b 581 854 179 697 311 854 l 696 854 l 696 90 z "},"º":{"ha":631,"x_min":0,"x_max":0,"o":"m 315 203 b 572 457 457 203 572 311 b 315 711 572 601 457 711 b 58 457 174 711 58 601 b 315 203 58 311 174 203 z m 315 279 b 151 457 217 279 151 353 b 315 633 151 560 217 633 b 481 457 414 633 481 560 b 315 279 481 353 414 279 z "},"æ":{"ha":1110,"x_min":0,"x_max":0,"o":"m 460 333 l 281 333 b 63 163 163 333 63 282 b 286 -11 63 44 156 -11 b 518 124 386 -11 488 32 b 771 -11 565 42 653 -11 b 1011 89 882 -11 958 29 l 953 147 b 769 71 914 106 856 71 b 556 261 642 71 567 151 l 1046 261 b 756 588 1051 446 942 588 b 522 457 653 588 569 531 b 332 588 493 540 426 588 b 97 476 222 588 147 544 l 157 422 b 325 506 193 471 244 506 b 460 350 410 506 460 463 z m 558 333 b 757 506 575 433 649 506 b 947 333 878 506 939 424 z m 460 261 l 460 192 b 296 68 460 117 385 68 b 157 167 204 68 157 100 b 288 261 157 238 215 261 z "},"ı":{"ha":308,"x_min":0,"x_max":0,"o":"m 106 0 l 203 0 l 203 575 l 106 575 z "},"ł":{"ha":371,"x_min":0,"x_max":0,"o":"m 138 0 l 235 0 l 235 392 l 357 467 l 357 563 l 235 488 l 235 1003 l 138 1003 l 138 432 l 19 360 l 19 264 l 138 335 z "},"ø":{"ha":742,"x_min":0,"x_max":0,"o":"m 617 467 l 694 539 l 646 590 l 567 518 b 372 588 515 561 447 588 b 67 288 200 588 67 456 b 126 108 67 219 89 158 l 46 35 l 94 -17 l 175 58 b 372 -11 228 15 297 -11 b 675 288 543 -11 675 119 b 617 467 675 356 653 417 z m 192 169 b 163 288 174 204 163 243 b 372 504 163 413 247 504 b 504 458 425 504 469 488 z m 550 404 b 579 288 569 372 579 332 b 372 71 579 163 496 71 b 238 117 319 71 274 88 z "},"œ":{"ha":1224,"x_min":0,"x_max":0,"o":"m 669 256 l 1158 256 b 869 588 1165 446 1054 588 b 624 426 753 588 664 521 b 372 588 582 522 492 588 b 67 288 200 588 67 456 b 372 -11 67 119 200 -11 b 624 149 490 -11 582 54 b 885 -11 665 54 754 -11 b 1125 89 996 -11 1072 29 l 1065 147 b 883 71 1028 106 969 71 b 669 256 756 71 682 146 z m 671 329 b 869 506 686 435 760 506 b 1061 329 990 506 1053 428 z m 372 72 b 165 288 249 72 165 164 b 372 503 165 411 249 503 b 576 288 494 503 576 411 b 372 72 576 164 494 72 z "},"ß":{"ha":750,"x_min":0,"x_max":0,"o":"m 393 -7 b 683 290 579 -7 683 119 b 454 564 683 439 590 538 b 588 778 544 603 588 682 b 350 1021 588 938 481 1021 b 103 758 219 1021 103 940 l 103 0 l 200 0 l 200 757 b 350 939 200 890 269 939 b 496 775 429 939 496 890 b 333 590 496 668 433 601 l 333 510 b 583 292 493 513 583 429 b 383 78 583 164 517 78 b 308 90 347 78 328 82 l 288 11 b 393 -7 311 1 350 -7 z "},"¹":{"ha":278,"x_min":0,"x_max":0,"o":"m 140 263 b 215 339 181 263 215 296 b 140 414 215 382 181 414 b 65 339 101 414 65 382 b 140 263 65 296 101 263 z "},"¬":{"ha":278,"x_min":0,"x_max":0,"o":"m 140 263 b 215 339 181 263 215 296 b 140 414 215 382 181 414 b 65 339 101 414 65 382 b 140 263 65 296 101 263 z "},"µ":{"ha":278,"x_min":0,"x_max":0,"o":"m 140 263 b 215 339 181 263 215 296 b 140 414 215 382 181 414 b 65 339 101 414 65 382 b 140 263 65 296 101 263 z "},"μ":{"ha":278,"x_min":0,"x_max":0,"o":"m 140 263 b 215 339 181 263 215 296 b 140 414 215 382 181 414 b 65 339 101 414 65 382 b 140 263 65 296 101 263 z "},"™":{"ha":1007,"x_min":0,"x_max":0,"o":"m 481 532 l 556 532 l 556 792 l 686 638 l 700 638 l 829 792 l 829 532 l 904 532 l 904 951 l 892 951 l 693 728 l 493 951 l 481 951 z m 192 532 l 267 532 l 267 881 l 392 881 l 392 944 l 67 944 l 67 881 l 192 881 z "},"Ð":{"ha":944,"x_min":0,"x_max":0,"o":"m 129 0 l 369 0 b 869 472 678 0 869 193 b 369 944 869 751 676 944 l 129 944 l 129 424 l 19 424 l 19 336 l 129 336 z m 229 90 l 229 336 l 483 336 l 483 424 l 229 424 l 229 854 l 363 854 b 764 472 632 854 764 697 b 363 90 764 247 632 90 z "},"½":{"ha":278,"x_min":0,"x_max":0,"o":"m 140 263 b 215 339 181 263 215 296 b 140 414 215 382 181 414 b 65 339 101 414 65 382 b 140 263 65 296 101 263 z "},"Þ":{"ha":811,"x_min":0,"x_max":0,"o":"m 129 0 l 229 0 l 229 124 l 351 124 b 733 479 604 124 733 272 b 351 835 733 685 604 835 l 229 835 l 229 944 l 129 944 z m 229 213 l 229 746 l 346 746 b 629 479 553 746 629 635 b 346 213 629 324 553 213 z "},"¼":{"ha":278,"x_min":0,"x_max":0,"o":"m 140 263 b 215 339 181 263 215 296 b 140 414 215 382 181 414 b 65 339 101 414 65 382 b 140 263 65 296 101 263 z "},"÷":{"ha":278,"x_min":0,"x_max":0,"o":"m 140 263 b 215 339 181 263 215 296 b 140 414 215 382 181 414 b 65 339 101 414 65 382 b 140 263 65 296 101 263 z "},"¦":{"ha":278,"x_min":0,"x_max":0,"o":"m 140 263 b 215 339 181 263 215 296 b 140 414 215 382 181 414 b 65 339 101 414 65 382 b 140 263 65 296 101 263 z "},"°":{"ha":451,"x_min":0,"x_max":0,"o":"m 226 397 b 388 554 315 397 388 467 b 226 711 388 643 315 711 b 64 554 136 711 64 643 b 226 397 64 467 136 397 z m 226 461 b 136 554 172 461 136 500 b 226 647 136 608 172 647 b 315 554 279 647 315 608 b 226 461 315 500 279 461 z "},"þ":{"ha":767,"x_min":0,"x_max":0,"o":"m 106 -294 l 203 -294 l 203 119 b 424 -11 240 44 321 -11 b 700 289 581 -11 700 117 b 425 588 700 460 582 588 b 203 457 318 588 243 533 l 203 1003 l 106 1003 z m 401 74 b 197 289 279 74 197 164 b 401 501 197 413 279 501 b 600 289 522 501 600 413 b 401 74 600 164 522 74 z "},"¾":{"ha":278,"x_min":0,"x_max":0,"o":"m 140 263 b 215 339 181 263 215 296 b 140 414 215 382 181 414 b 65 339 101 414 65 382 b 140 263 65 296 101 263 z "},"²":{"ha":278,"x_min":0,"x_max":0,"o":"m 140 263 b 215 339 181 263 215 296 b 140 414 215 382 181 414 b 65 339 101 414 65 382 b 140 263 65 296 101 263 z "},"®":{"ha":714,"x_min":0,"x_max":0,"o":"m 354 368 b 661 665 522 368 661 494 b 354 964 661 839 522 964 b 53 665 189 964 53 839 b 354 368 53 494 189 368 z m 354 417 b 110 665 213 417 110 515 b 354 915 110 817 213 915 b 606 665 499 915 606 817 b 354 417 606 515 499 417 z m 425 600 b 490 707 468 621 490 663 b 349 832 490 774 444 832 l 247 832 l 247 503 l 308 503 l 308 583 l 350 583 b 369 585 357 583 364 583 l 424 503 l 490 503 z m 308 632 l 308 781 l 349 781 b 429 706 406 781 429 750 b 349 632 429 660 406 632 z "},"−":{"ha":278,"x_min":0,"x_max":0,"o":"m 140 263 b 215 339 181 263 215 296 b 140 414 215 382 181 414 b 65 339 101 414 65 382 b 140 263 65 296 101 263 z "},"ð":{"ha":742,"x_min":0,"x_max":0,"o":"m 383 799 b 549 497 457 710 519 606 b 361 588 506 554 443 588 b 67 288 201 588 67 457 b 372 -11 67 119 200 -11 b 675 303 543 -11 675 122 b 447 861 675 531 567 722 l 544 954 l 493 1004 l 400 913 b 276 1025 357 957 315 994 l 222 965 b 339 851 261 933 301 894 l 242 757 l 290 708 z m 372 72 b 165 288 249 72 165 164 b 372 503 165 411 249 503 b 576 293 494 503 576 414 b 372 72 576 167 494 72 z "},"×":{"ha":278,"x_min":0,"x_max":0,"o":"m 140 263 b 215 339 181 263 215 296 b 140 414 215 382 181 414 b 65 339 101 414 65 382 b 140 263 65 296 101 263 z "},"³":{"ha":278,"x_min":0,"x_max":0,"o":"m 140 263 b 215 339 181 263 215 296 b 140 414 215 382 181 414 b 65 339 101 414 65 382 b 140 263 65 296 101 263 z "},"©":{"ha":831,"x_min":0,"x_max":0,"o":"m 417 -10 b 776 350 611 -10 776 143 b 417 711 776 558 611 711 b 54 350 219 711 54 558 b 417 -10 54 143 219 -10 z m 417 46 b 113 350 247 46 113 172 b 417 656 113 529 247 656 b 718 350 585 656 718 529 b 417 46 718 172 585 46 z m 421 143 b 582 217 497 143 547 176 l 525 269 b 424 219 503 242 472 219 b 304 350 353 219 304 276 b 424 482 304 426 353 482 b 521 435 468 482 497 465 l 578 488 b 418 558 539 529 493 558 b 215 350 304 558 215 469 b 421 143 215 232 304 143 z "},"Á":{"ha":911,"x_min":0,"x_max":0,"o":"m 415 1046 l 492 1046 l 621 1314 l 510 1314 z m 51 0 l 150 0 l 213 158 l 690 158 l 754 0 l 860 0 l 460 954 l 443 954 z m 247 244 l 414 664 b 451 776 432 708 451 776 b 488 664 451 776 469 708 l 654 244 z "},"Â":{"ha":911,"x_min":0,"x_max":0,"o":"m 267 1043 l 351 1043 l 451 1181 l 550 1043 l 635 1043 l 457 1311 l 444 1311 z m 51 0 l 150 0 l 213 158 l 690 158 l 754 0 l 860 0 l 460 954 l 443 954 z m 247 244 l 414 664 b 451 776 432 708 451 776 b 488 664 451 776 469 708 l 654 244 z "},"Ä":{"ha":911,"x_min":0,"x_max":0,"o":"m 575 1071 b 639 1135 608 1071 639 1100 b 575 1199 639 1171 608 1199 b 510 1135 542 1199 510 1171 b 575 1071 510 1100 542 1071 z m 333 1071 b 399 1135 368 1071 399 1100 b 333 1199 399 1171 368 1199 b 269 1135 300 1199 269 1171 b 333 1071 269 1100 300 1071 z m 51 0 l 150 0 l 213 158 l 690 158 l 754 0 l 860 0 l 460 954 l 443 954 z m 247 244 l 414 664 b 451 776 432 708 451 776 b 488 664 451 776 469 708 l 654 244 z "},"À":{"ha":911,"x_min":0,"x_max":0,"o":"m 415 1046 l 492 1046 l 397 1314 l 286 1314 z m 51 0 l 150 0 l 213 158 l 690 158 l 754 0 l 860 0 l 460 954 l 443 954 z m 247 244 l 414 664 b 451 776 432 708 451 776 b 488 664 451 776 469 708 l 654 244 z "},"Å":{"ha":911,"x_min":0,"x_max":0,"o":"m 454 1010 b 600 1149 536 1010 600 1072 b 454 1289 600 1226 536 1289 b 308 1149 372 1289 308 1226 b 454 1010 308 1072 372 1010 z m 51 0 l 150 0 l 213 158 l 690 158 l 754 0 l 860 0 l 460 954 l 443 954 z m 454 1072 b 382 1149 411 1072 382 1103 b 454 1225 382 1196 411 1225 b 526 1149 497 1225 526 1196 b 454 1072 526 1103 497 1072 z m 247 244 l 414 664 b 451 776 432 708 451 776 b 488 664 451 776 469 708 l 654 244 z "},"Ã":{"ha":911,"x_min":0,"x_max":0,"o":"m 321 1039 b 372 1121 326 1094 344 1121 b 439 1082 394 1121 404 1113 b 535 1036 469 1056 496 1036 b 654 1189 604 1036 649 1090 l 582 1196 b 532 1115 576 1140 561 1115 b 465 1154 510 1115 500 1124 b 369 1199 435 1181 408 1199 b 249 1044 301 1199 254 1144 z m 51 0 l 150 0 l 213 158 l 690 158 l 754 0 l 860 0 l 460 954 l 443 954 z m 247 244 l 414 664 b 451 776 432 708 451 776 b 488 664 451 776 469 708 l 654 244 z "},"Ç":{"ha":1008,"x_min":0,"x_max":0,"o":"m 560 -11 b 949 183 729 -11 865 61 l 871 238 b 560 79 803 139 697 79 b 179 472 339 79 179 247 b 560 865 179 697 339 865 b 858 717 696 865 797 807 l 935 772 b 560 956 854 893 726 956 b 75 472 292 956 75 757 b 493 -7 75 211 257 22 l 493 -129 l 524 -129 b 597 -194 574 -129 597 -158 b 535 -257 597 -236 568 -257 b 460 -206 492 -257 476 -233 l 400 -240 b 540 -322 422 -285 468 -322 b 674 -200 608 -322 674 -278 b 560 -74 674 -126 618 -82 z "},"É":{"ha":806,"x_min":0,"x_max":0,"o":"m 374 1046 l 450 1046 l 579 1314 l 468 1314 z m 129 0 l 724 0 l 724 89 l 229 89 l 229 325 l 653 325 l 653 413 l 229 413 l 229 856 l 704 856 l 704 944 l 129 944 z "},"Ê":{"ha":806,"x_min":0,"x_max":0,"o":"m 239 1043 l 324 1043 l 424 1181 l 522 1043 l 607 1043 l 429 1311 l 417 1311 z m 129 0 l 724 0 l 724 89 l 229 89 l 229 325 l 653 325 l 653 413 l 229 413 l 229 856 l 704 856 l 704 944 l 129 944 z "},"Ë":{"ha":806,"x_min":0,"x_max":0,"o":"m 543 1071 b 607 1135 576 1071 607 1100 b 543 1199 607 1171 576 1199 b 478 1135 510 1199 478 1171 b 543 1071 478 1100 510 1071 z m 301 1071 b 367 1135 336 1071 367 1100 b 301 1199 367 1171 336 1199 b 238 1135 268 1199 238 1171 b 301 1071 238 1100 268 1071 z m 129 0 l 724 0 l 724 89 l 229 89 l 229 325 l 653 325 l 653 413 l 229 413 l 229 856 l 704 856 l 704 944 l 129 944 z "},"È":{"ha":806,"x_min":0,"x_max":0,"o":"m 390 1046 l 467 1046 l 372 1314 l 261 1314 z m 129 0 l 724 0 l 724 89 l 229 89 l 229 325 l 653 325 l 653 413 l 229 413 l 229 856 l 704 856 l 704 944 l 129 944 z "},"Í":{"ha":368,"x_min":0,"x_max":0,"o":"m 147 1046 l 224 1046 l 353 1314 l 242 1314 z m 133 0 l 235 0 l 235 944 l 133 944 z "},"Î":{"ha":368,"x_min":0,"x_max":0,"o":"m -1 1043 l 83 1043 l 183 1181 l 282 1043 l 367 1043 l 189 1311 l 176 1311 z m 133 0 l 235 0 l 235 944 l 133 944 z "},"Ï":{"ha":368,"x_min":0,"x_max":0,"o":"m 304 1071 b 368 1135 338 1071 368 1100 b 304 1199 368 1171 338 1199 b 239 1135 271 1199 239 1171 b 304 1071 239 1100 271 1071 z m 63 1071 b 128 1135 97 1071 128 1100 b 63 1199 128 1171 97 1199 b -1 1135 29 1199 -1 1171 b 63 1071 -1 1100 29 1071 z m 133 0 l 235 0 l 235 944 l 133 944 z "},"Ì":{"ha":368,"x_min":0,"x_max":0,"o":"m 143 1046 l 219 1046 l 125 1314 l 14 1314 z m 133 0 l 235 0 l 235 944 l 133 944 z "},"Ñ":{"ha":990,"x_min":0,"x_max":0,"o":"m 364 1039 b 415 1121 369 1094 388 1121 b 482 1082 438 1121 447 1113 b 578 1036 513 1056 539 1036 b 697 1189 647 1036 692 1090 l 625 1196 b 575 1115 619 1140 604 1115 b 508 1154 553 1115 543 1124 b 413 1199 478 1181 451 1199 b 292 1044 344 1199 297 1144 z m 844 -10 l 861 -10 l 861 944 l 768 944 l 768 307 b 775 200 768 267 775 200 b 710 288 775 200 736 256 l 146 954 l 129 954 l 129 0 l 224 0 l 224 638 b 215 744 224 678 215 744 b 281 657 215 744 254 689 z "},"Ó":{"ha":1121,"x_min":0,"x_max":0,"o":"m 519 1046 l 596 1046 l 725 1314 l 614 1314 z m 560 -11 b 1046 472 829 -11 1046 188 b 560 956 1046 757 829 956 b 75 472 292 956 75 757 b 560 -11 75 188 292 -11 z m 560 79 b 179 472 340 79 179 247 b 560 865 179 697 340 865 b 942 472 781 865 942 697 b 560 79 942 247 781 79 z "},"Ô":{"ha":1121,"x_min":0,"x_max":0,"o":"m 375 1043 l 460 1043 l 560 1181 l 658 1043 l 743 1043 l 565 1311 l 553 1311 z m 560 -11 b 1046 472 829 -11 1046 188 b 560 956 1046 757 829 956 b 75 472 292 956 75 757 b 560 -11 75 188 292 -11 z m 560 79 b 179 472 340 79 179 247 b 560 865 179 697 340 865 b 942 472 781 865 942 697 b 560 79 942 247 781 79 z "},"Ö":{"ha":1121,"x_min":0,"x_max":0,"o":"m 681 1071 b 744 1135 714 1071 744 1100 b 681 1199 744 1171 714 1199 b 615 1135 647 1199 615 1171 b 681 1071 615 1100 647 1071 z m 439 1071 b 504 1135 474 1071 504 1100 b 439 1199 504 1171 474 1199 b 375 1135 406 1199 375 1171 b 439 1071 375 1100 406 1071 z m 560 -11 b 1046 472 829 -11 1046 188 b 560 956 1046 757 829 956 b 75 472 292 956 75 757 b 560 -11 75 188 292 -11 z m 560 79 b 179 472 340 79 179 247 b 560 865 179 697 340 865 b 942 472 781 865 942 697 b 560 79 942 247 781 79 z "},"Ò":{"ha":1121,"x_min":0,"x_max":0,"o":"m 524 1046 l 600 1046 l 506 1314 l 394 1314 z m 560 -11 b 1046 472 829 -11 1046 188 b 560 956 1046 757 829 956 b 75 472 292 956 75 757 b 560 -11 75 188 292 -11 z m 560 79 b 179 472 340 79 179 247 b 560 865 179 697 340 865 b 942 472 781 865 942 697 b 560 79 942 247 781 79 z "},"Õ":{"ha":1121,"x_min":0,"x_max":0,"o":"m 429 1039 b 481 1121 435 1094 453 1121 b 547 1082 503 1121 513 1113 b 643 1036 578 1056 604 1036 b 763 1189 713 1036 757 1090 l 690 1196 b 640 1115 685 1140 669 1115 b 574 1154 618 1115 608 1124 b 478 1199 543 1181 517 1199 b 357 1044 410 1199 363 1144 z m 560 -11 b 1046 472 829 -11 1046 188 b 560 956 1046 757 829 956 b 75 472 292 956 75 757 b 560 -11 75 188 292 -11 z m 560 79 b 179 472 340 79 179 247 b 560 865 179 697 340 865 b 942 472 781 865 942 697 b 560 79 942 247 781 79 z "},"Š":{"ha":738,"x_min":0,"x_max":0,"o":"m 342 1032 l 354 1032 l 532 1300 l 447 1300 l 347 1163 l 249 1300 l 164 1300 z m 369 -11 b 663 239 539 -11 663 83 b 425 528 663 381 582 458 l 350 563 b 200 732 244 611 200 649 b 350 867 200 813 257 867 b 525 764 439 867 489 822 l 606 814 b 350 956 556 897 476 956 b 101 729 208 956 101 865 b 310 471 101 597 175 532 l 385 436 b 563 239 503 383 563 335 b 367 78 563 139 476 78 b 124 225 233 78 168 146 l 40 181 b 369 -11 90 81 189 -11 z "},"Ú":{"ha":919,"x_min":0,"x_max":0,"o":"m 419 1046 l 496 1046 l 625 1314 l 514 1314 z m 460 -11 b 799 322 651 -11 799 101 l 799 944 l 699 944 l 699 329 b 460 78 699 161 606 78 b 221 329 313 78 221 161 l 221 944 l 121 944 l 121 322 b 460 -11 121 101 267 -11 z "},"Û":{"ha":919,"x_min":0,"x_max":0,"o":"m 275 1043 l 360 1043 l 460 1181 l 558 1043 l 643 1043 l 465 1311 l 453 1311 z m 460 -11 b 799 322 651 -11 799 101 l 799 944 l 699 944 l 699 329 b 460 78 699 161 606 78 b 221 329 313 78 221 161 l 221 944 l 121 944 l 121 322 b 460 -11 121 101 267 -11 z "},"Ü":{"ha":919,"x_min":0,"x_max":0,"o":"m 581 1071 b 644 1135 614 1071 644 1100 b 581 1199 644 1171 614 1199 b 515 1135 547 1199 515 1171 b 581 1071 515 1100 547 1071 z m 339 1071 b 404 1135 374 1071 404 1100 b 339 1199 404 1171 374 1199 b 275 1135 306 1199 275 1171 b 339 1071 275 1100 306 1071 z m 460 -11 b 799 322 651 -11 799 101 l 799 944 l 699 944 l 699 329 b 460 78 699 161 606 78 b 221 329 313 78 221 161 l 221 944 l 121 944 l 121 322 b 460 -11 121 101 267 -11 z "},"Ù":{"ha":919,"x_min":0,"x_max":0,"o":"m 424 1046 l 500 1046 l 406 1314 l 294 1314 z m 460 -11 b 799 322 651 -11 799 101 l 799 944 l 699 944 l 699 329 b 460 78 699 161 606 78 b 221 329 313 78 221 161 l 221 944 l 121 944 l 121 322 b 460 -11 121 101 267 -11 z "},"Ý":{"ha":911,"x_min":0,"x_max":0,"o":"m 415 1046 l 492 1046 l 621 1314 l 510 1314 z m 408 0 l 511 0 l 511 300 l 861 944 l 757 944 l 501 475 b 461 379 482 438 461 379 b 421 475 461 379 442 439 l 164 944 l 51 944 l 408 296 z "},"Ÿ":{"ha":911,"x_min":0,"x_max":0,"o":"m 575 1071 b 639 1135 608 1071 639 1100 b 575 1199 639 1171 608 1199 b 510 1135 542 1199 510 1171 b 575 1071 510 1100 542 1071 z m 333 1071 b 399 1135 368 1071 399 1100 b 333 1199 399 1171 368 1199 b 269 1135 300 1199 269 1171 b 333 1071 269 1100 300 1071 z m 408 0 l 511 0 l 511 300 l 861 944 l 757 944 l 501 475 b 461 379 482 438 461 379 b 421 475 461 379 442 439 l 164 944 l 51 944 l 408 296 z "},"Ž":{"ha":807,"x_min":0,"x_max":0,"o":"m 419 1032 l 432 1032 l 610 1300 l 525 1300 l 425 1163 l 326 1300 l 242 1300 z m 54 0 l 740 0 l 740 89 l 211 89 l 738 929 l 738 944 l 129 944 l 129 856 l 582 856 l 54 15 z "},"á":{"ha":654,"x_min":0,"x_max":0,"o":"m 282 692 l 358 692 l 488 960 l 376 960 z m 460 338 l 281 338 b 63 164 160 338 63 282 b 274 -11 63 44 151 -11 b 464 86 365 -11 425 28 l 460 0 l 557 0 l 557 353 b 332 588 557 513 460 588 b 97 476 222 588 147 544 l 157 422 b 325 506 193 471 244 506 b 460 351 410 506 460 463 z m 460 264 l 460 192 b 296 68 460 117 385 68 b 157 168 206 68 157 103 b 288 264 157 238 214 264 z "},"â":{"ha":654,"x_min":0,"x_max":0,"o":"m 144 689 l 229 689 l 329 826 l 428 689 l 513 689 l 335 957 l 322 957 z m 460 338 l 281 338 b 63 164 160 338 63 282 b 274 -11 63 44 151 -11 b 464 86 365 -11 425 28 l 460 0 l 557 0 l 557 353 b 332 588 557 513 460 588 b 97 476 222 588 147 544 l 157 422 b 325 506 193 471 244 506 b 460 351 410 506 460 463 z m 460 264 l 460 192 b 296 68 460 117 385 68 b 157 168 206 68 157 103 b 288 264 157 238 214 264 z "},"ä":{"ha":654,"x_min":0,"x_max":0,"o":"m 450 717 b 514 781 483 717 514 746 b 450 844 514 817 483 844 b 385 781 417 844 385 817 b 450 717 385 746 417 717 z m 208 717 b 274 781 243 717 274 746 b 208 844 274 817 243 844 b 144 781 175 844 144 817 b 208 717 144 746 175 717 z m 460 338 l 281 338 b 63 164 160 338 63 282 b 274 -11 63 44 151 -11 b 464 86 365 -11 425 28 l 460 0 l 557 0 l 557 353 b 332 588 557 513 460 588 b 97 476 222 588 147 544 l 157 422 b 325 506 193 471 244 506 b 460 351 410 506 460 463 z m 460 264 l 460 192 b 296 68 460 117 385 68 b 157 168 206 68 157 103 b 288 264 157 238 214 264 z "},"à":{"ha":654,"x_min":0,"x_max":0,"o":"m 296 692 l 372 692 l 278 960 l 167 960 z m 460 338 l 281 338 b 63 164 160 338 63 282 b 274 -11 63 44 151 -11 b 464 86 365 -11 425 28 l 460 0 l 557 0 l 557 353 b 332 588 557 513 460 588 b 97 476 222 588 147 544 l 157 422 b 325 506 193 471 244 506 b 460 351 410 506 460 463 z m 460 264 l 460 192 b 296 68 460 117 385 68 b 157 168 206 68 157 103 b 288 264 157 238 214 264 z "},"å":{"ha":654,"x_min":0,"x_max":0,"o":"m 326 672 b 472 811 408 672 472 735 b 326 951 472 889 408 951 b 181 811 244 951 181 889 b 326 672 181 735 244 672 z m 460 338 l 281 338 b 63 164 160 338 63 282 b 274 -11 63 44 151 -11 b 464 86 365 -11 425 28 l 460 0 l 557 0 l 557 353 b 332 588 557 513 460 588 b 97 476 222 588 147 544 l 157 422 b 325 506 193 471 244 506 b 460 351 410 506 460 463 z m 326 735 b 254 811 283 735 254 765 b 326 888 254 858 283 888 b 399 811 369 888 399 858 b 326 735 399 765 369 735 z m 460 264 l 460 192 b 296 68 460 117 385 68 b 157 168 206 68 157 103 b 288 264 157 238 214 264 z "},"ã":{"ha":654,"x_min":0,"x_max":0,"o":"m 190 685 b 242 767 196 740 214 767 b 308 728 264 767 274 758 b 404 682 339 701 365 682 b 524 835 474 682 518 736 l 451 842 b 401 761 446 786 431 761 b 335 800 379 761 369 769 b 239 844 304 826 278 844 b 118 690 171 844 124 790 z m 460 338 l 281 338 b 63 164 160 338 63 282 b 274 -11 63 44 151 -11 b 464 86 365 -11 425 28 l 460 0 l 557 0 l 557 353 b 332 588 557 513 460 588 b 97 476 222 588 147 544 l 157 422 b 325 506 193 471 244 506 b 460 351 410 506 460 463 z m 460 264 l 460 192 b 296 68 460 117 385 68 b 157 168 206 68 157 103 b 288 264 157 238 214 264 z "},"ç":{"ha":649,"x_min":0,"x_max":0,"o":"m 301 -4 l 301 -129 l 332 -129 b 406 -194 382 -129 406 -158 b 343 -257 406 -236 376 -257 b 268 -206 300 -257 285 -233 l 208 -240 b 349 -322 231 -285 276 -322 b 482 -200 417 -322 482 -278 b 368 -74 482 -126 426 -82 l 368 -11 b 597 92 474 -11 543 26 l 531 149 b 365 74 494 106 444 74 b 167 288 243 74 167 165 b 365 501 167 410 243 501 b 522 428 438 501 488 474 l 592 485 b 365 588 539 549 468 588 b 67 288 196 588 67 456 b 301 -4 67 142 164 24 z "},"é":{"ha":717,"x_min":0,"x_max":0,"o":"m 318 692 l 394 692 l 524 960 l 413 960 z m 164 256 l 653 256 b 364 588 660 446 549 588 b 67 288 196 588 67 456 b 378 -11 67 119 189 -11 b 619 89 490 -11 567 29 l 560 147 b 378 71 522 106 464 71 b 164 256 251 71 176 146 z m 165 329 b 364 506 181 435 254 506 b 556 329 485 506 547 428 z "},"ê":{"ha":717,"x_min":0,"x_max":0,"o":"m 174 689 l 258 689 l 358 826 l 457 689 l 542 689 l 364 957 l 351 957 z m 164 256 l 653 256 b 364 588 660 446 549 588 b 67 288 196 588 67 456 b 378 -11 67 119 189 -11 b 619 89 490 -11 567 29 l 560 147 b 378 71 522 106 464 71 b 164 256 251 71 176 146 z m 165 329 b 364 506 181 435 254 506 b 556 329 485 506 547 428 z "},"ë":{"ha":717,"x_min":0,"x_max":0,"o":"m 479 717 b 543 781 513 717 543 746 b 479 844 543 817 513 844 b 414 781 446 844 414 817 b 479 717 414 746 446 717 z m 238 717 b 303 781 272 717 303 746 b 238 844 303 817 272 844 b 174 781 204 844 174 817 b 238 717 174 746 204 717 z m 164 256 l 653 256 b 364 588 660 446 549 588 b 67 288 196 588 67 456 b 378 -11 67 119 189 -11 b 619 89 490 -11 567 29 l 560 147 b 378 71 522 106 464 71 b 164 256 251 71 176 146 z m 165 329 b 364 506 181 435 254 506 b 556 329 485 506 547 428 z "},"è":{"ha":717,"x_min":0,"x_max":0,"o":"m 326 692 l 403 692 l 308 960 l 197 960 z m 164 256 l 653 256 b 364 588 660 446 549 588 b 67 288 196 588 67 456 b 378 -11 67 119 189 -11 b 619 89 490 -11 567 29 l 560 147 b 378 71 522 106 464 71 b 164 256 251 71 176 146 z m 165 329 b 364 506 181 435 254 506 b 556 329 485 506 547 428 z "},"í":{"ha":308,"x_min":0,"x_max":0,"o":"m 113 692 l 189 692 l 318 960 l 207 960 z m 106 0 l 203 0 l 203 575 l 106 575 z "},"î":{"ha":308,"x_min":0,"x_max":0,"o":"m -31 689 l 54 689 l 154 826 l 253 689 l 338 689 l 160 957 l 147 957 z m 106 0 l 203 0 l 203 575 l 106 575 z "},"ï":{"ha":308,"x_min":0,"x_max":0,"o":"m 275 717 b 339 781 308 717 339 746 b 275 844 339 817 308 844 b 210 781 242 844 210 817 b 275 717 210 746 242 717 z m 33 717 b 99 781 68 717 99 746 b 33 844 99 817 68 844 b -31 781 0 844 -31 817 b 33 717 -31 746 0 717 z m 106 0 l 203 0 l 203 575 l 106 575 z "},"ì":{"ha":308,"x_min":0,"x_max":0,"o":"m 115 692 l 192 692 l 97 960 l -14 960 z m 106 0 l 203 0 l 203 575 l 106 575 z "},"ñ":{"ha":717,"x_min":0,"x_max":0,"o":"m 224 685 b 275 767 229 740 247 767 b 342 728 297 767 307 758 b 438 682 372 701 399 682 b 557 835 507 682 551 736 l 485 842 b 435 761 479 786 464 761 b 368 800 413 761 403 769 b 272 844 338 826 311 844 b 151 690 204 844 157 790 z m 103 0 l 200 0 l 200 317 b 379 499 200 431 272 499 b 522 339 475 499 522 440 l 522 0 l 619 0 l 619 350 b 404 588 619 500 532 588 b 197 457 311 588 235 539 l 200 575 l 103 575 z "},"ó":{"ha":742,"x_min":0,"x_max":0,"o":"m 332 692 l 408 692 l 538 960 l 426 960 z m 372 -11 b 675 288 543 -11 675 119 b 372 588 675 456 543 588 b 67 288 200 588 67 456 b 372 -11 67 119 200 -11 z m 372 72 b 165 288 249 72 165 164 b 372 503 165 411 249 503 b 576 288 494 503 576 411 b 372 72 576 164 494 72 z "},"ô":{"ha":742,"x_min":0,"x_max":0,"o":"m 186 689 l 271 689 l 371 826 l 469 689 l 554 689 l 376 957 l 364 957 z m 372 -11 b 675 288 543 -11 675 119 b 372 588 675 456 543 588 b 67 288 200 588 67 456 b 372 -11 67 119 200 -11 z m 372 72 b 165 288 249 72 165 164 b 372 503 165 411 249 503 b 576 288 494 503 576 411 b 372 72 576 164 494 72 z "},"ö":{"ha":742,"x_min":0,"x_max":0,"o":"m 492 717 b 556 781 525 717 556 746 b 492 844 556 817 525 844 b 426 781 458 844 426 817 b 492 717 426 746 458 717 z m 250 717 b 315 781 285 717 315 746 b 250 844 315 817 285 844 b 186 781 217 844 186 817 b 250 717 186 746 217 717 z m 372 -11 b 675 288 543 -11 675 119 b 372 588 675 456 543 588 b 67 288 200 588 67 456 b 372 -11 67 119 200 -11 z m 372 72 b 165 288 249 72 165 164 b 372 503 165 411 249 503 b 576 288 494 503 576 411 b 372 72 576 164 494 72 z "},"ò":{"ha":742,"x_min":0,"x_max":0,"o":"m 333 692 l 410 692 l 315 960 l 204 960 z m 372 -11 b 675 288 543 -11 675 119 b 372 588 675 456 543 588 b 67 288 200 588 67 456 b 372 -11 67 119 200 -11 z m 372 72 b 165 288 249 72 165 164 b 372 503 165 411 249 503 b 576 288 494 503 576 411 b 372 72 576 164 494 72 z "},"õ":{"ha":742,"x_min":0,"x_max":0,"o":"m 240 685 b 292 767 246 740 264 767 b 358 728 314 767 324 758 b 454 682 389 701 415 682 b 574 835 524 682 568 736 l 501 842 b 451 761 496 786 481 761 b 385 800 429 761 419 769 b 289 844 354 826 328 844 b 168 690 221 844 174 790 z m 372 -11 b 675 288 543 -11 675 119 b 372 588 675 456 543 588 b 67 288 200 588 67 456 b 372 -11 67 119 200 -11 z m 372 72 b 165 288 249 72 165 164 b 372 503 165 411 249 503 b 576 288 494 503 576 411 b 372 72 576 164 494 72 z "},"š":{"ha":569,"x_min":0,"x_max":0,"o":"m 268 678 l 281 678 l 458 946 l 374 946 l 274 808 l 175 946 l 90 946 z m 296 -11 b 506 160 440 -11 506 63 b 315 336 506 271 413 310 b 179 435 214 365 179 381 b 279 508 179 479 217 508 b 404 443 335 508 375 483 l 471 494 b 279 588 431 551 367 588 b 90 431 174 588 90 531 b 264 260 90 322 174 286 b 414 154 364 231 414 217 b 292 68 414 101 369 68 b 125 165 208 68 158 110 l 50 122 b 296 -11 88 50 169 -11 z "},"ú":{"ha":715,"x_min":0,"x_max":0,"o":"m 317 692 l 393 692 l 522 960 l 411 960 z m 313 -12 b 518 117 406 -12 481 36 l 515 0 l 613 0 l 613 575 l 515 575 l 515 258 b 336 76 515 146 444 76 b 194 232 242 76 194 132 l 194 575 l 97 575 l 97 222 b 313 -12 97 75 185 -12 z "},"û":{"ha":715,"x_min":0,"x_max":0,"o":"m 172 689 l 257 689 l 357 826 l 456 689 l 540 689 l 363 957 l 350 957 z m 313 -12 b 518 117 406 -12 481 36 l 515 0 l 613 0 l 613 575 l 515 575 l 515 258 b 336 76 515 146 444 76 b 194 232 242 76 194 132 l 194 575 l 97 575 l 97 222 b 313 -12 97 75 185 -12 z "},"ü":{"ha":715,"x_min":0,"x_max":0,"o":"m 478 717 b 542 781 511 717 542 746 b 478 844 542 817 511 844 b 413 781 444 844 413 817 b 478 717 413 746 444 717 z m 236 717 b 301 781 271 717 301 746 b 236 844 301 817 271 844 b 172 781 203 844 172 817 b 236 717 172 746 203 717 z m 313 -12 b 518 117 406 -12 481 36 l 515 0 l 613 0 l 613 575 l 515 575 l 515 258 b 336 76 515 146 444 76 b 194 232 242 76 194 132 l 194 575 l 97 575 l 97 222 b 313 -12 97 75 185 -12 z "},"ù":{"ha":715,"x_min":0,"x_max":0,"o":"m 321 692 l 397 692 l 303 960 l 192 960 z m 313 -12 b 518 117 406 -12 481 36 l 515 0 l 613 0 l 613 575 l 515 575 l 515 258 b 336 76 515 146 444 76 b 194 232 242 76 194 132 l 194 575 l 97 575 l 97 222 b 313 -12 97 75 185 -12 z "},"ý":{"ha":642,"x_min":0,"x_max":0,"o":"m 285 692 l 361 692 l 490 960 l 379 960 z m 132 -294 l 232 -294 l 607 575 l 507 575 l 357 218 b 331 121 340 182 331 121 b 304 218 331 121 319 182 l 142 575 l 35 575 l 279 49 z "},"ÿ":{"ha":642,"x_min":0,"x_max":0,"o":"m 440 717 b 504 781 474 717 504 746 b 440 844 504 817 474 844 b 375 781 407 844 375 817 b 440 717 375 746 407 717 z m 199 717 b 264 781 233 717 264 746 b 199 844 264 817 233 844 b 135 781 165 844 135 817 b 199 717 135 746 165 717 z m 132 -294 l 232 -294 l 607 575 l 507 575 l 357 218 b 331 121 340 182 331 121 b 304 218 331 121 319 182 l 142 575 l 35 575 l 279 49 z "},"ž":{"ha":579,"x_min":0,"x_max":0,"o":"m 306 678 l 318 678 l 496 946 l 411 946 l 311 808 l 213 946 l 128 946 z m 44 0 l 526 0 l 526 81 l 199 81 l 533 560 l 533 575 l 81 575 l 81 494 l 376 494 l 44 14 z "},"\r":{"ha":329,"x_min":0,"x_max":0,"o":""},"≤":{"ha":278,"x_min":0,"x_max":0,"o":"m 140 263 b 215 339 181 263 215 296 b 140 414 215 382 181 414 b 65 339 101 414 65 382 b 140 263 65 296 101 263 z "},"≥":{"ha":278,"x_min":0,"x_max":0,"o":"m 140 263 b 215 339 181 263 215 296 b 140 414 215 382 181 414 b 65 339 101 414 65 382 b 140 263 65 296 101 263 z "},"∂":{"ha":278,"x_min":0,"x_max":0,"o":"m 140 263 b 215 339 181 263 215 296 b 140 414 215 382 181 414 b 65 339 101 414 65 382 b 140 263 65 296 101 263 z "},"∑":{"ha":1119,"x_min":0,"x_max":0,"o":"m 611 1 b 1044 472 854 24 1044 207 b 558 956 1044 757 828 956 b 74 472 290 956 74 757 b 253 99 74 313 143 181 b 104 -14 188 79 138 38 l 172 -69 b 340 32 208 -14 263 32 b 544 -60 419 32 483 -14 b 814 -181 614 -114 697 -181 b 1019 -89 917 -181 979 -136 l 951 -28 b 813 -90 925 -57 882 -90 b 611 1 725 -90 671 -47 z m 558 82 b 178 472 339 82 178 249 b 558 865 178 697 339 865 b 940 472 779 865 940 697 b 558 82 940 249 779 82 z "},"∏":{"ha":278,"x_min":0,"x_max":0,"o":"m 140 263 b 215 339 181 263 215 296 b 140 414 215 382 181 414 b 65 339 101 414 65 382 b 140 263 65 296 101 263 z "},"π":{"ha":278,"x_min":0,"x_max":0,"o":"m 140 263 b 215 339 181 263 215 296 b 140 414 215 382 181 414 b 65 339 101 414 65 382 b 140 263 65 296 101 263 z "},"∫":{"ha":278,"x_min":0,"x_max":0,"o":"m 140 263 b 215 339 181 263 215 296 b 140 414 215 382 181 414 b 65 339 101 414 65 382 b 140 263 65 296 101 263 z "},"Ω":{"ha":278,"x_min":0,"x_max":0,"o":"m 140 263 b 215 339 181 263 215 296 b 140 414 215 382 181 414 b 65 339 101 414 65 382 b 140 263 65 296 101 263 z "},"Ω":{"ha":278,"x_min":0,"x_max":0,"o":"m 140 263 b 215 339 181 263 215 296 b 140 414 215 382 181 414 b 65 339 101 414 65 382 b 140 263 65 296 101 263 z "},"√":{"ha":278,"x_min":0,"x_max":0,"o":"m 140 263 b 215 339 181 263 215 296 b 140 414 215 382 181 414 b 65 339 101 414 65 382 b 140 263 65 296 101 263 z "},"≈":{"ha":278,"x_min":0,"x_max":0,"o":"m 140 263 b 215 339 181 263 215 296 b 140 414 215 382 181 414 b 65 339 101 414 65 382 b 140 263 65 296 101 263 z "},"Δ":{"ha":278,"x_min":0,"x_max":0,"o":"m 140 263 b 215 339 181 263 215 296 b 140 414 215 382 181 414 b 65 339 101 414 65 382 b 140 263 65 296 101 263 z "},"∆":{"ha":278,"x_min":0,"x_max":0,"o":"m 140 263 b 215 339 181 263 215 296 b 140 414 215 382 181 414 b 65 339 101 414 65 382 b 140 263 65 296 101 263 z "}," ":{"ha":253,"x_min":0,"x_max":0,"o":""},"◊":{"ha":278,"x_min":0,"x_max":0,"o":"m 140 263 b 215 339 181 263 215 296 b 140 414 215 382 181 414 b 65 339 101 414 65 382 b 140 263 65 296 101 263 z "},"€":{"ha":863,"x_min":0,"x_max":0,"o":"m 157 393 b 154 350 156 379 154 365 b 157 306 154 335 156 319 l 56 306 l 56 228 l 174 228 b 513 -11 222 85 356 -11 b 797 129 644 -11 740 42 l 726 179 b 513 74 678 114 618 74 b 276 228 404 74 315 132 l 576 228 l 576 306 l 256 306 b 253 350 254 319 253 335 b 256 393 253 365 254 379 l 576 393 l 576 471 l 275 471 b 513 626 314 567 401 626 b 717 525 610 626 668 590 l 789 581 b 513 711 725 665 636 711 b 174 471 354 711 221 615 l 56 471 l 56 393 z "}}}
